<?xml version="1.0" encoding="UTF-8"?>
<svg version="1.1" xmlns="http://www.w3.org/2000/svg" width="690" height="623">
<path d="M0 0 C15.49994028 0.26724035 28.97403002 11.31343656 39.875 21.4375 C46.75542856 28.67825025 51.810755 37.33264495 52.625 47.375 C52.73714844 48.68597656 52.73714844 48.68597656 52.8515625 50.0234375 C52.90054687 50.67570312 52.94953125 51.32796875 53 52 C53.433125 51.154375 53.86625 50.30875 54.3125 49.4375 C57.02112371 45.35063666 60.91462409 43.35154917 65.046875 40.87109375 C68.87232113 38.44729918 72.26678753 35.63077783 75.7109375 32.69921875 C78.06449333 30.95212526 80.24229138 29.95983851 83 29 C85.00762712 36.78497135 83.32449367 46.14759125 79.3046875 53.1015625 C72.02186325 63.69872593 63.2786097 68.70424334 51 72 C51.40992188 73.11375 51.81984375 74.2275 52.2421875 75.375 C55.90267499 85.61939086 58.26558789 95.12370632 59 106 C59.07089844 106.96550781 59.14179688 107.93101562 59.21484375 108.92578125 C59.75579588 124.22390743 56.43668279 139.33349595 51.20703125 153.60546875 C49.88832298 156.71361164 49.88832298 156.71361164 50 159 C55.33807744 153.92373562 60.12747725 148.57699944 64.7265625 142.82421875 C66.17004604 141.03102528 67.64131143 139.25957681 69.1484375 137.51953125 C98.32013378 103.55609425 113.72070531 57.87093142 124 15 C124.33 15 124.66 15 125 15 C125.19952686 21.50764516 124.46797088 27.58954746 123.375 34 C123.19678711 35.04599365 123.01857422 36.0919873 122.83496094 37.16967773 C112.7088759 94.43517303 85.68946314 153.32664321 36.85108948 187.73892212 C33.49781092 190.02338512 30.04769722 192.15085371 26.59765625 194.28515625 C25.86357544 194.74152466 25.12949463 195.19789307 24.37316895 195.66809082 C22.5832265 196.78052147 20.79177045 197.89051607 19 199 C58.5940343 193.42567771 97.39257061 185.37171345 136 175 C141.76977145 173.45435026 147.54070534 171.91307616 153.3125 170.375 C154.00860382 170.18914337 154.70470764 170.00328674 155.42190552 169.8117981 C165.90913258 167.0163159 176.42952438 164.39953385 187 161.9375 C188.92453003 161.48866455 188.92453003 161.48866455 190.88793945 161.03076172 C199.72254287 159 199.72254287 159 202 159 C202 159.66 202 160.32 202 161 C126.34283931 185.65932713 49.00092633 207.29530982 -29.53076172 220.58203125 C-32.17593359 221.02978033 -34.82038379 221.48166013 -37.46484375 221.93359375 C-43.18247831 222.90791777 -48.9032279 223.86281871 -54.625 224.8125 C-55.94579559 225.03385117 -55.94579559 225.03385117 -57.29327393 225.25967407 C-73.8650769 228.02358944 -90.43910376 230.08085161 -107.25 230.5 C-115.05454056 230.75283404 -122.78995359 231.19678898 -130.5625 231.9375 C-143.18507457 233.10494416 -155.83771543 233.59693136 -168.5 234.125 C-169.53947784 234.16938202 -170.57895569 234.21376404 -171.64993286 234.25949097 C-174.69354699 234.38823051 -177.73732957 234.51154957 -180.78125 234.6328125 C-181.67247055 234.67021042 -182.5636911 234.70760834 -183.48191833 234.74613953 C-189.11198412 234.96072614 -194.73184438 235.01952723 -200.3651123 235.00949097 C-201.10188076 235.00880584 -201.83864922 235.00812071 -202.59774399 235.00741482 C-204.39849681 235.00564096 -206.19924866 235.00291797 -208 235 C-207.93949421 261.4947417 -207.86201459 287.9893866 -207.76428509 314.48401833 C-207.71930483 326.78572356 -207.67989527 339.0873997 -207.65356445 351.38916016 C-207.63060248 362.11041042 -207.59722455 372.83156878 -207.55129844 383.55274618 C-207.52734202 389.23039517 -207.50862906 394.907953 -207.50238609 400.5856514 C-207.49634624 405.92902728 -207.476386 411.27216986 -207.44572449 416.61545944 C-207.43692665 418.57701753 -207.43322528 420.53860608 -207.43499184 422.50018311 C-207.43664228 425.17834039 -207.41996484 427.85578449 -207.39872742 430.53384399 C-207.40357499 431.3101204 -207.40842257 432.0863968 -207.41341704 432.88619673 C-207.35096875 437.65776954 -206.54579861 440.95398638 -204 445 C-200.89482781 447.28802161 -197.60531711 448.66088222 -194 450 C-194 452.31 -194 454.62 -194 457 C-214.13 457 -234.26 457 -255 457 C-255 454.69 -255 452.38 -255 450 C-254.31292969 449.72027344 -253.62585938 449.44054687 -252.91796875 449.15234375 C-252.01691406 448.75144531 -251.11585938 448.35054687 -250.1875 447.9375 C-249.29417969 447.55464844 -248.40085937 447.17179687 -247.48046875 446.77734375 C-244.22112291 444.44190697 -243.1225088 441.73720486 -242 438 C-241.59982854 435.14269866 -241.58311622 432.33357563 -241.60127258 429.45155334 C-241.59462576 428.61661124 -241.58797893 427.78166914 -241.58113068 426.92142576 C-241.56255251 424.13767703 -241.56510247 421.35436009 -241.56762695 418.57055664 C-241.55860664 416.56954341 -241.54827875 414.56853571 -241.53674316 412.5675354 C-241.50917885 407.14455453 -241.49988937 401.72167852 -241.49388909 396.29863667 C-241.484504 390.62779543 -241.45830046 384.95703248 -241.43388367 379.28623962 C-241.39021879 368.55190859 -241.3616717 357.81759274 -241.33856028 347.08319992 C-241.3115086 334.86073413 -241.26759703 322.6383471 -241.22227156 310.41593754 C-241.1294254 285.2773344 -241.05774448 260.13870655 -241 235 C-251.94462236 235.06131456 -262.88900828 235.13849534 -273.83337402 235.23571491 C-278.91575523 235.28036815 -283.99805721 235.31963543 -289.08056641 235.34643555 C-293.9890466 235.37251881 -298.89722108 235.41295681 -303.80551147 235.46318626 C-305.67447089 235.47982102 -307.54348314 235.49135636 -309.4125061 235.49761391 C-312.03834792 235.50729199 -314.66341358 235.53539497 -317.2890625 235.56762695 C-318.05511307 235.56619186 -318.82116364 235.56475677 -319.61042786 235.5632782 C-324.99494756 235.65624413 -329.08346403 236.75966938 -334 239 C-335.97074124 241.39167425 -335.97074124 241.39167425 -337 244.1875 C-337.391875 245.08855469 -337.78375 245.98960937 -338.1875 246.91796875 C-338.455625 247.60503906 -338.72375 248.29210937 -339 249 C-341.31 249 -343.62 249 -346 249 C-346 231.51 -346 214.02 -346 196 C-343.69 196 -341.38 196 -339 196 C-338.75765625 196.61488281 -338.5153125 197.22976563 -338.265625 197.86328125 C-335.90401238 203.95750344 -335.90401238 203.95750344 -331 208 C-327.12610052 209.29129983 -323.34261641 209.36842809 -319.296875 209.578125 C-317.8951857 209.65558205 -317.8951857 209.65558205 -316.46517944 209.73460388 C-313.22704269 209.91158483 -309.98858329 210.08139439 -306.75 210.25 C-305.59965271 210.31047516 -304.44930542 210.37095032 -303.26409912 210.43325806 C-297.99696816 210.70968284 -292.72974999 210.98420503 -287.46224976 211.25349426 C-278.75633417 211.69888644 -270.05122367 212.15693124 -261.34667969 212.62841797 C-198.10667535 216.19986412 -198.10667535 216.19986412 -134.79140472 217.49899673 C-132.86152126 217.49997515 -130.93164286 217.5063112 -129.00177002 217.51278687 C-78.7085965 217.58861919 -23.16039262 209.46968512 20 182 C20.89452881 181.48453613 21.78905762 180.96907227 22.71069336 180.43798828 C31.36497042 174.97360078 34.37136878 168.3062711 37.8125 159.125 C38.36267556 157.72857801 38.91518457 156.33307323 39.4699707 154.93847656 C41.03144137 150.97716521 42.52391534 146.9939263 44 143 C44.37092773 142.00258789 44.74185547 141.00517578 45.12402344 139.97753906 C49.59971687 127.75912317 52.39309333 116.03820153 52.375 102.9375 C52.37693359 101.46108032 52.37693359 101.46108032 52.37890625 99.95483398 C52.2462726 90.6169726 50.50644799 81.96278945 48 73 C46.68 73 45.36 73 44 73 C43.34 72.34 42.68 71.68 42 71 C40.34830378 70.39495156 38.67827813 69.83934583 37 69.3125 C30.84614312 67.13016744 26.08824777 64.04819713 21 60 C19.67742187 58.95972656 19.67742187 58.95972656 18.328125 57.8984375 C11.03987883 51.79614855 6.61895113 45.44431468 5 36 C4.91450029 34.35181076 4.86896557 32.70115878 4.859375 31.05078125 C4.97862387 17.78622175 4.97862387 17.78622175 -0.0390625 5.8046875 C-1 4 -1 4 -0.6484375 1.7578125 C-0.43445313 1.17773438 -0.22046875 0.59765625 0 0 Z " fill="#8A5D3A" transform="translate(380,108)"/>
<path d="M0 0 C15.49994028 0.26724035 28.97403002 11.31343656 39.875 21.4375 C46.75542856 28.67825025 51.810755 37.33264495 52.625 47.375 C52.69976562 48.24898437 52.77453125 49.12296875 52.8515625 50.0234375 C52.90054688 50.67570312 52.94953125 51.32796875 53 52 C53.433125 51.154375 53.86625 50.30875 54.3125 49.4375 C57.02112371 45.35063666 60.91462409 43.35154917 65.046875 40.87109375 C68.87232113 38.44729918 72.26678753 35.63077783 75.7109375 32.69921875 C78.06449333 30.95212526 80.24229138 29.95983851 83 29 C85.00762712 36.78497135 83.32449367 46.14759125 79.3046875 53.1015625 C71.62029226 64.28304779 61.28849246 70.25563743 48 73 C46.68 73 45.36 73 44 73 C43.01 72.01 43.01 72.01 42 71 C40.34830378 70.39495156 38.67827813 69.83934583 37 69.3125 C30.84614312 67.13016744 26.08824777 64.04819713 21 60 C20.11828125 59.30648437 19.2365625 58.61296875 18.328125 57.8984375 C11.03987883 51.79614855 6.61895113 45.44431468 5 36 C4.91450029 34.35181076 4.86896557 32.70115878 4.859375 31.05078125 C4.97862387 17.78622175 4.97862387 17.78622175 -0.0390625 5.8046875 C-1 4 -1 4 -0.6484375 1.7578125 C-0.43445313 1.17773438 -0.22046875 0.59765625 0 0 Z " fill="#8CC63F" transform="translate(380,108)"/>
<path d="M0 0 C1.65 0 3.3 0 5 0 C5.72703125 1.39412109 5.72703125 1.39412109 6.46875 2.81640625 C10.42436063 10.19330108 14.07507239 16.04590948 21 21 C32.35936094 29.17612352 39.64018602 38.13901012 43 52 C43.49701968 55.51159046 43.82167423 59.02950061 44.125 62.5625 C44.21136719 63.48224609 44.29773438 64.40199219 44.38671875 65.34960938 C45.52761716 77.94476567 45.52761716 77.94476567 44 81 C33.24276562 82.13234046 22.89400499 77.58873342 14.4375 71.125 C10.28122319 67.49945837 6.93988625 63.65944235 4 59 C3.61070312 58.4328125 3.22140625 57.865625 2.8203125 57.28125 C-5.60747499 43.25544307 -3.36172221 17.54071528 -1 2 C-0.67 1.34 -0.34 0.68 0 0 Z " fill="#8CC63F" transform="translate(308,225)"/>
<path d="M0 0 C10.2861041 7.68928437 15.35733026 18.60931479 18.67578125 30.71875 C19.97184726 34.49953923 22.25513621 36.15476317 25.6328125 38.03125 C26.2103125 38.27875 26.7878125 38.52625 27.3828125 38.78125 C27.0528125 39.77125 26.7228125 40.76125 26.3828125 41.78125 C20.27242354 43.01847752 14.898485 42.48422913 8.7578125 41.59375 C7.78158936 41.45428955 6.80536621 41.3148291 5.79956055 41.17114258 C-8.74413352 38.97493502 -24.16850661 34.93658427 -33.6171875 22.78125 C-38.23063792 15.69287566 -39.78354995 10.48405575 -39.6796875 2.03125 C-39.67517578 1.33386719 -39.67066406 0.63648438 -39.66601562 -0.08203125 C-39.6542877 -1.79430803 -39.63635403 -3.50654033 -39.6171875 -5.21875 C-25.42685542 -9.06697565 -12.47507614 -7.97779164 0 0 Z " fill="#8CC63F" transform="translate(562.6171875,299.21875)"/>
<path d="M0 0 C3.32830148 1.07944913 5.91653034 0.41706547 9.3125 -0.25 C10.281875 -0.435625 11.25125 -0.62125 12.25 -0.8125 C12.930625 -0.956875 13.61125 -1.10125 14.3125 -1.25 C13.08266515 8.99250521 1.63192305 18.16235493 -6.03564453 24.48193359 C-16.66421258 32.64107968 -29.06091751 38.4247755 -42.6875 36.75 C-50.5740527 34.93997151 -56.05747799 31.49294509 -61.6875 25.75 C-58.84496907 14.97830384 -52.71502529 7.26426225 -43.6875 0.75 C-40.43768741 -0.90592507 -37.17310251 -2.18445312 -33.6875 -3.25 C-33.09839844 -3.44207031 -32.50929688 -3.63414062 -31.90234375 -3.83203125 C-21.10911089 -5.86884944 -9.89884987 -4.60411622 0 0 Z " fill="#8CC63F" transform="translate(648.6875,242.25)"/>
<path d="M0 0 C4.27754549 1.65268803 5.6932336 5.09759423 7.75 9.0625 C9.00419234 12.19697802 9.96395833 15.37597632 10.875 18.625 C11.12652832 19.49688965 11.37805664 20.3687793 11.63720703 21.26708984 C19.93346097 50.6292692 19.93346097 50.6292692 12.75 65.0625 C9.91900774 69.32062261 6.573672 73.15546688 1.75 75.0625 C-2.88475743 75.8166013 -6.0942575 75.832995 -10.0625 73.1875 C-17.4645339 62.61316586 -19.38130666 49.70485196 -18.25 37.0625 C-16.90898955 31.22605679 -14.51240505 26.33974102 -11.3125 21.3125 C-7.86683082 15.89912634 -6.10331472 10.17560827 -4.23046875 4.08984375 C-2.93226699 0.08145186 -2.93226699 0.08145186 0 0 Z " fill="#8CC640" transform="translate(510.25,42.9375)"/>
<path d="M0 0 C5.6912374 4.17246144 10.75557657 8.34076876 15 14 C14.01 15.485 14.01 15.485 13 17 C12.175 16.67 11.35 16.34 10.5 16 C4.7973492 14.3706712 0.71883656 14.22357276 -4.640625 16.64453125 C-5.8507149 17.35546321 -7.05372479 18.07856033 -8.25 18.8125 C-19.52515165 25.21392172 -30.32152388 27.76919629 -43.19921875 24.4296875 C-50.09924079 21.82534079 -54.09281492 15.91659456 -58 10 C-58 9.34 -58 8.68 -58 8 C-58.66 7.67 -59.32 7.34 -60 7 C-42.52886387 -11.96581508 -22.07828408 -15.57626515 0 0 Z " fill="#8CC640" transform="translate(567,128)"/>
<path d="M0 0 C2.26801839 2.11681717 3.83433377 4.22802772 5.4375 6.875 C9.80402303 13.5970011 15.48316621 19.22428566 21 25 C26.037797 22.31991728 30.0692612 19.4308027 34.1875 15.5 C34.69474609 15.02691406 35.20199219 14.55382812 35.72460938 14.06640625 C38.53812813 11.43169738 41.29076939 8.74156033 44 6 C40.24939282 16.80485798 30.83624434 24.31088045 22 31 C17.44542319 28.98048334 15.16042796 25.96585225 12.125 22.125 C11.59487305 21.45895752 11.06474609 20.79291504 10.51855469 20.10668945 C0 6.54796861 0 6.54796861 0 0 Z " fill="#F4F9EC" transform="translate(405,151)"/>
<path d="M0 0 C-15.48381944 8.18913172 -31.12100524 14.68765364 -49 14 C-46.38716558 12.62679701 -43.8741224 11.56725175 -41.04296875 10.73828125 C-40.27065918 10.50955322 -39.49834961 10.2808252 -38.70263672 10.04516602 C-37.45764404 9.68249634 -37.45764404 9.68249634 -36.1875 9.3125 C-34.40210316 8.78727549 -32.61695734 8.2611971 -30.83203125 7.734375 C-29.89053223 7.45658203 -28.9490332 7.17878906 -27.97900391 6.89257812 C-24.85716872 5.95720446 -21.74642913 4.99051518 -18.63671875 4.015625 C-17.59298096 3.69037842 -16.54924316 3.36513184 -15.47387695 3.0300293 C-13.42771284 2.3911773 -11.38323021 1.74691149 -9.34057617 1.09692383 C-8.41092041 0.80841553 -7.48126465 0.51990723 -6.5234375 0.22265625 C-5.69763184 -0.03765381 -4.87182617 -0.29796387 -4.02099609 -0.56616211 C-2 -1 -2 -1 0 0 Z " fill="#F1F8E8" transform="translate(636,254)"/>
<path d="M0 0 C0.47163574 0.35481445 0.94327148 0.70962891 1.42919922 1.07519531 C14.49345828 10.89013048 27.66363941 20.55794372 41 30 C38 31 38 31 34.59375 29.4453125 C33.22112154 28.68624441 31.85694257 27.91176559 30.5 27.125 C29.78239502 26.7129834 29.06479004 26.3009668 28.32543945 25.87646484 C17.64074182 19.59219289 8.20565511 11.2849289 0 2 C0 1.34 0 0.68 0 0 Z " fill="#F3F9EB" transform="translate(523,294)"/>
<path d="M0 0 C2.08769717 2.67527529 3.82424744 5.34978182 5.41796875 8.34375 C5.86390381 9.17253662 6.30983887 10.00132324 6.76928711 10.85522461 C7.23729736 11.72800049 7.70530762 12.60077637 8.1875 13.5 C13.45810065 23.20752786 19.00882111 32.41083737 26 41 C25.67 41.66 25.34 42.32 25 43 C12.59723438 31.35658737 2.70440299 17.12788562 0 0 Z " fill="#F3F9EB" transform="translate(326,263)"/>
<path d="M0 0 C0.33 0 0.66 0 1 0 C1.40130726 13.64444671 0.55279253 23.7982484 -6 36 C-6.66 35.67 -7.32 35.34 -8 35 C-7.61908203 33.77990234 -7.61908203 33.77990234 -7.23046875 32.53515625 C-4.74977384 24.2754642 -3.00349787 16.11785597 -1.61328125 7.6171875 C-1.17343634 5.022943 -0.70146052 2.53050243 0 0 Z " fill="#F5FAEE" transform="translate(511,82)"/>
<path d="M0 0 C0.99644531 0.48339844 1.99289062 0.96679688 3.01953125 1.46484375 C0.23046471 2.3945326 -1.22490346 2.55390285 -4.078125 2.45703125 C-4.87541016 2.43842041 -5.67269531 2.41980957 -6.49414062 2.40063477 C-7.33525391 2.38057373 -8.17636719 2.3605127 -9.04296875 2.33984375 C-15.51481612 2.24169309 -21.07564938 2.45844311 -27.16796875 4.90625 C-28.98046875 5.46484375 -28.98046875 5.46484375 -31.98046875 4.46484375 C-22.26108478 -1.72021878 -11.10204909 -4.7269463 0 0 Z " fill="#F7FBF2" transform="translate(538.98046875,130.53515625)"/>
<path d="M0 0 C-4.95 2.475 -4.95 2.475 -10 5 C-10 4.34 -10 3.68 -10 3 C-10.66 2.67 -11.32 2.34 -12 2 C-10.37787941 1.47026689 -8.75218416 0.95146893 -7.125 0.4375 C-6.22007812 0.14746094 -5.31515625 -0.14257812 -4.3828125 -0.44140625 C-2 -1 -2 -1 0 0 Z " fill="#E1F0CD" transform="translate(636,254)"/>
<path d="M0 0 C0 0.66 0 1.32 0 2 C-3.9813783 3.3271261 -7.85045227 3.06915913 -12 3 C-7.85930434 0.85826087 -4.68855996 -0.12671784 0 0 Z " fill="#EAF4DC" transform="translate(599,265)"/>
<path d="M0 0 C3.43595166 1.52708963 6.11912454 3.59927045 9 6 C5.04179141 5.43454163 2.3340947 4.19097652 -1 2 C-0.67 1.34 -0.34 0.68 0 0 Z " fill="#E6F2D5" transform="translate(555,319)"/>
<path d="M0 0 C1 3 1 3 -0.4375 6.1875 C-1.2109375 7.5796875 -1.2109375 7.5796875 -2 9 C-2.66 8.67 -3.32 8.34 -4 8 C-1.125 1.125 -1.125 1.125 0 0 Z " fill="#E8F3D9" transform="translate(507,109)"/>
</svg>
